<svg width="70" height="12" viewBox="0 0 70 12" fill="none" xmlns="http://www.w3.org/2000/svg">
<path d="M6.07617 9.19922C4.97852 9.19922 4.01953 9.01953 3.19922 8.66016C2.38281 8.30078 1.75 7.79102 1.30078 7.13086C0.851562 6.4668 0.626953 5.68164 0.626953 4.77539V4.76367C0.626953 3.85742 0.851562 3.07422 1.30078 2.41406C1.75 1.75 2.38281 1.23828 3.19922 0.878906C4.01953 0.519531 4.97852 0.339844 6.07617 0.339844C7.18164 0.339844 8.14258 0.519531 8.95898 0.878906C9.77539 1.23828 10.4082 1.75 10.8574 2.41406C11.3066 3.07422 11.5312 3.85742 11.5312 4.76367V4.77539C11.5312 5.68164 11.3066 6.4668 10.8574 7.13086C10.4082 7.79102 9.77539 8.30078 8.95898 8.66016C8.14258 9.01953 7.18164 9.19922 6.07617 9.19922ZM6.07617 6.99023C6.57617 6.99023 7.00977 6.90039 7.37695 6.7207C7.74805 6.54102 8.0332 6.28516 8.23242 5.95312C8.43555 5.62109 8.53711 5.22852 8.53711 4.77539V4.76367C8.53711 4.31055 8.43555 3.91992 8.23242 3.5918C8.0332 3.25977 7.74805 3.00391 7.37695 2.82422C7.00977 2.64062 6.57617 2.54883 6.07617 2.54883C5.58008 2.54883 5.14648 2.64062 4.77539 2.82422C4.4082 3.00391 4.12305 3.25977 3.91992 3.5918C3.7207 3.91992 3.62109 4.31055 3.62109 4.76367V4.77539C3.62109 5.22852 3.7207 5.62109 3.91992 5.95312C4.12305 6.28516 4.4082 6.54102 4.77539 6.7207C5.14648 6.90039 5.58008 6.99023 6.07617 6.99023ZM13.043 11.1211V2.44922H15.8789V3.57422H15.9492C16.0938 3.32422 16.2891 3.10547 16.5352 2.91797C16.7852 2.73047 17.082 2.58203 17.4258 2.47266C17.7695 2.36328 18.1582 2.30859 18.5918 2.30859C19.252 2.30859 19.8359 2.44727 20.3438 2.72461C20.8555 3.00195 21.2539 3.39648 21.5391 3.9082C21.8281 4.41602 21.9727 5.01953 21.9727 5.71875V5.73047C21.9727 6.4375 21.8301 7.04688 21.5449 7.55859C21.2598 8.07031 20.8633 8.46484 20.3555 8.74219C19.8477 9.01562 19.2598 9.15234 18.5918 9.15234C18.1621 9.15234 17.7754 9.09766 17.4316 8.98828C17.0879 8.875 16.791 8.7207 16.541 8.52539C16.2949 8.33008 16.0977 8.10547 15.9492 7.85156H15.8789V11.1211H13.043ZM17.4902 7.20703C17.8105 7.20703 18.0898 7.14844 18.3281 7.03125C18.5703 6.91406 18.7578 6.74609 18.8906 6.52734C19.0234 6.30469 19.0898 6.04102 19.0898 5.73633V5.71875C19.0898 5.41016 19.0234 5.14648 18.8906 4.92773C18.7578 4.70508 18.5703 4.53516 18.3281 4.41797C18.0898 4.30078 17.8105 4.24219 17.4902 4.24219C17.1621 4.24219 16.877 4.30078 16.6348 4.41797C16.3926 4.53516 16.2051 4.70508 16.0723 4.92773C15.9395 5.14648 15.873 5.41016 15.873 5.71875V5.73047C15.873 6.03906 15.9395 6.30469 16.0723 6.52734C16.2051 6.74609 16.3926 6.91406 16.6348 7.03125C16.8809 7.14844 17.166 7.20703 17.4902 7.20703ZM27.3691 9.17578C26.4707 9.17578 25.6934 9.04102 25.0371 8.77148C24.3848 8.50195 23.8809 8.11133 23.5254 7.59961C23.1699 7.08789 22.9922 6.47266 22.9922 5.75391V5.74805C22.9922 5.02539 23.1719 4.40625 23.5312 3.89062C23.8945 3.37109 24.3965 2.97266 25.0371 2.69531C25.6816 2.41406 26.4336 2.27539 27.293 2.2793C28.168 2.2793 28.9258 2.42578 29.5664 2.71875C30.207 3.00781 30.7012 3.41602 31.0488 3.94336C31.4004 4.4707 31.5762 5.08984 31.5762 5.80078V6.28711L24.4688 6.28125V4.98633H29.7188L28.957 5.90039V5.46094C28.957 5.15234 28.8945 4.88672 28.7695 4.66406C28.6484 4.44141 28.4688 4.27148 28.2305 4.1543C27.9961 4.03711 27.709 3.97852 27.3691 3.97852C27.0176 3.97852 26.7168 4.03711 26.4668 4.1543C26.2207 4.26758 26.0312 4.4375 25.8984 4.66406C25.7695 4.88672 25.7051 5.16211 25.7051 5.49023V5.91797C25.7051 6.28516 25.7754 6.58594 25.916 6.82031C26.0566 7.05078 26.2578 7.2207 26.5195 7.33008C26.7852 7.43555 27.1016 7.48828 27.4688 7.48828C27.6953 7.48828 27.9004 7.46289 28.084 7.41211C28.2715 7.35742 28.4336 7.28711 28.5703 7.20117C28.7109 7.11523 28.8164 7.01953 28.8867 6.91406L28.9102 6.88477H31.4941L31.4824 6.94922C31.4004 7.27344 31.2461 7.57227 31.0195 7.8457C30.793 8.11523 30.502 8.34961 30.1465 8.54883C29.7949 8.74805 29.3848 8.90234 28.916 9.01172C28.4512 9.12109 27.9355 9.17578 27.3691 9.17578ZM32.9766 9V2.45508H35.8125V3.67383H35.8828C36.0938 3.25195 36.418 2.91406 36.8555 2.66016C37.2969 2.40625 37.8379 2.2793 38.4785 2.2793C39.3848 2.2793 40.0859 2.52539 40.582 3.01758C41.0781 3.50586 41.3262 4.20312 41.3262 5.10938V9H38.4902V5.73047C38.4902 5.26172 38.3809 4.90625 38.1621 4.66406C37.9473 4.41797 37.6289 4.29492 37.207 4.29492C36.9141 4.29492 36.6641 4.35352 36.457 4.4707C36.25 4.58789 36.0898 4.75586 35.9766 4.97461C35.8672 5.19336 35.8125 5.45508 35.8125 5.75977V9H32.9766ZM48.0879 9.19922C46.9902 9.19922 46.043 9.01953 45.2461 8.66016C44.4531 8.29688 43.8418 7.78516 43.4121 7.125C42.9824 6.46484 42.7676 5.67969 42.7676 4.76953V4.75781C42.7676 3.85156 42.9824 3.06836 43.4121 2.4082C43.8418 1.74805 44.4531 1.23828 45.2461 0.878906C46.043 0.519531 46.9902 0.339844 48.0879 0.339844C49.0332 0.339844 49.8789 0.490234 50.625 0.791016C51.375 1.08789 51.9785 1.50977 52.4355 2.05664C52.8926 2.59961 53.1621 3.24023 53.2441 3.97852L53.2559 4.08398H50.3672L50.3555 4.02539C50.2812 3.71289 50.1406 3.44727 49.9336 3.22852C49.7305 3.00977 49.4727 2.8418 49.1602 2.72461C48.8477 2.60742 48.4961 2.54883 48.1055 2.54883C47.6172 2.54883 47.1973 2.63867 46.8457 2.81836C46.498 2.99805 46.2305 3.25391 46.043 3.58594C45.8555 3.91406 45.7617 4.30469 45.7617 4.75781V4.76953C45.7617 5.22266 45.8555 5.61523 46.043 5.94727C46.2305 6.2793 46.5 6.53516 46.8516 6.71484C47.2031 6.89453 47.623 6.98438 48.1113 6.98438C48.498 6.98438 48.8457 6.92773 49.1543 6.81445C49.4629 6.69727 49.7207 6.5293 49.9277 6.31055C50.1348 6.08789 50.2773 5.82031 50.3555 5.50781L50.3672 5.44336H53.2559L53.25 5.53711C53.1641 6.2832 52.8926 6.92969 52.4355 7.47656C51.9785 8.02344 51.377 8.44727 50.6309 8.74805C49.8887 9.04883 49.041 9.19922 48.0879 9.19922ZM57.1699 9.09375C56.5996 9.09375 56.1035 9.01562 55.6816 8.85938C55.2637 8.69922 54.9414 8.4668 54.7148 8.16211C54.4883 7.85742 54.375 7.48633 54.375 7.04883V7.03711C54.375 6.6543 54.4785 6.31836 54.6855 6.0293C54.8965 5.74023 55.2305 5.51367 55.6875 5.34961C56.1484 5.18555 56.75 5.0957 57.4922 5.08008L61.125 5.02148V6.26367L57.9961 6.32812C57.6953 6.33594 57.4707 6.38477 57.3223 6.47461C57.1777 6.56445 57.1055 6.68945 57.1055 6.84961V6.86133C57.1055 7.06836 57.2012 7.22266 57.3926 7.32422C57.5879 7.42578 57.8438 7.47656 58.1602 7.47656C58.4805 7.47656 58.7578 7.43359 58.9922 7.34766C59.2266 7.26172 59.4062 7.14062 59.5312 6.98438C59.6602 6.82422 59.7246 6.63672 59.7246 6.42188V4.82812C59.7246 4.57812 59.6191 4.38477 59.4082 4.24805C59.1973 4.10742 58.8984 4.03711 58.5117 4.03711C58.1719 4.03711 57.9062 4.08398 57.7148 4.17773C57.5234 4.26758 57.3965 4.39453 57.334 4.55859L57.3223 4.59375H54.6855L54.6973 4.52344C54.7832 4.07812 54.9824 3.6875 55.2949 3.35156C55.6074 3.01562 56.0371 2.75391 56.584 2.56641C57.1348 2.375 57.8008 2.2793 58.582 2.2793C59.418 2.2793 60.1309 2.38086 60.7207 2.58398C61.3105 2.7832 61.7617 3.07812 62.0742 3.46875C62.3906 3.85938 62.5488 4.33594 62.5488 4.89844V9H59.7246V8.03906H59.6543C59.5176 8.25781 59.3301 8.44727 59.0918 8.60742C58.8535 8.76367 58.5723 8.88477 58.248 8.9707C57.9238 9.05273 57.5645 9.09375 57.1699 9.09375ZM68.2383 9.03516C67.0898 9.03516 66.2656 8.85938 65.7656 8.50781C65.2656 8.15234 65.0156 7.57031 65.0156 6.76172V4.29492H63.7617V2.45508H65.0156V0.972656H67.8457V2.45508H69.7383V4.29492H67.8516V6.29883C67.8516 6.61523 67.9414 6.8418 68.1211 6.97852C68.3047 7.11523 68.6094 7.18359 69.0352 7.18359C69.1836 7.18359 69.3145 7.17969 69.4277 7.17188C69.541 7.16406 69.6445 7.15234 69.7383 7.13672V8.92969C69.5391 8.96094 69.3066 8.98633 69.041 9.00586C68.7793 9.02539 68.5117 9.03516 68.2383 9.03516Z" fill="white"/>
</svg>
