<?xml version="1.0" encoding="utf-8"?>
<svg xmlns="http://www.w3.org/2000/svg" xmlns:xlink="http://www.w3.org/1999/xlink" xml:space="preserve" width="792" height="792" viewBox="0 0 792 792"><rect width="792" height="792" fill="#ffffff" x="0" y="0"/><g fill="#000000">
<g transform="translate(288,48) scale(4.12)"><rect width="6" height="6"/></g>
<g transform="translate(312,48) scale(4.12)"><rect width="6" height="6"/></g>
<g transform="translate(336,48) scale(4.12)"><rect width="6" height="6"/></g>
<g transform="translate(408,48) scale(4.12)"><rect width="6" height="6"/></g>
<g transform="translate(432,48) scale(4.12)"><rect width="6" height="6"/></g>
<g transform="translate(456,48) scale(4.12)"><rect width="6" height="6"/></g>
<g transform="translate(480,48) scale(4.12)"><rect width="6" height="6"/></g>
<g transform="translate(504,48) scale(4.12)"><rect width="6" height="6"/></g>
<g transform="translate(312,72) scale(4.12)"><rect width="6" height="6"/></g>
<g transform="translate(336,72) scale(4.12)"><rect width="6" height="6"/></g>
<g transform="translate(456,72) scale(4.12)"><rect width="6" height="6"/></g>
<g transform="translate(528,72) scale(4.12)"><rect width="6" height="6"/></g>
<g transform="translate(240,96) scale(4.12)"><rect width="6" height="6"/></g>
<g transform="translate(384,96) scale(4.12)"><rect width="6" height="6"/></g>
<g transform="translate(432,96) scale(4.12)"><rect width="6" height="6"/></g>
<g transform="translate(528,96) scale(4.12)"><rect width="6" height="6"/></g>
<g transform="translate(240,120) scale(4.12)"><rect width="6" height="6"/></g>
<g transform="translate(288,120) scale(4.12)"><rect width="6" height="6"/></g>
<g transform="translate(336,120) scale(4.12)"><rect width="6" height="6"/></g>
<g transform="translate(456,120) scale(4.12)"><rect width="6" height="6"/></g>
<g transform="translate(504,120) scale(4.12)"><rect width="6" height="6"/></g>
<g transform="translate(240,144) scale(4.12)"><rect width="6" height="6"/></g>
<g transform="translate(264,144) scale(4.12)"><rect width="6" height="6"/></g>
<g transform="translate(360,144) scale(4.12)"><rect width="6" height="6"/></g>
<g transform="translate(384,144) scale(4.12)"><rect width="6" height="6"/></g>
<g transform="translate(408,144) scale(4.12)"><rect width="6" height="6"/></g>
<g transform="translate(480,144) scale(4.12)"><rect width="6" height="6"/></g>
<g transform="translate(504,144) scale(4.12)"><rect width="6" height="6"/></g>
<g transform="translate(528,144) scale(4.12)"><rect width="6" height="6"/></g>
<g transform="translate(240,168) scale(4.12)"><rect width="6" height="6"/></g>
<g transform="translate(288,168) scale(4.12)"><rect width="6" height="6"/></g>
<g transform="translate(336,168) scale(4.12)"><rect width="6" height="6"/></g>
<g transform="translate(360,168) scale(4.12)"><rect width="6" height="6"/></g>
<g transform="translate(384,168) scale(4.12)"><rect width="6" height="6"/></g>
<g transform="translate(408,168) scale(4.12)"><rect width="6" height="6"/></g>
<g transform="translate(432,168) scale(4.12)"><rect width="6" height="6"/></g>
<g transform="translate(480,168) scale(4.12)"><rect width="6" height="6"/></g>
<g transform="translate(528,168) scale(4.12)"><rect width="6" height="6"/></g>
<g transform="translate(240,192) scale(4.12)"><rect width="6" height="6"/></g>
<g transform="translate(288,192) scale(4.12)"><rect width="6" height="6"/></g>
<g transform="translate(336,192) scale(4.12)"><rect width="6" height="6"/></g>
<g transform="translate(384,192) scale(4.12)"><rect width="6" height="6"/></g>
<g transform="translate(432,192) scale(4.12)"><rect width="6" height="6"/></g>
<g transform="translate(480,192) scale(4.12)"><rect width="6" height="6"/></g>
<g transform="translate(528,192) scale(4.12)"><rect width="6" height="6"/></g>
<g transform="translate(240,216) scale(4.12)"><rect width="6" height="6"/></g>
<g transform="translate(264,216) scale(4.12)"><rect width="6" height="6"/></g>
<g transform="translate(288,216) scale(4.12)"><rect width="6" height="6"/></g>
<g transform="translate(336,216) scale(4.12)"><rect width="6" height="6"/></g>
<g transform="translate(360,216) scale(4.12)"><rect width="6" height="6"/></g>
<g transform="translate(408,216) scale(4.12)"><rect width="6" height="6"/></g>
<g transform="translate(504,216) scale(4.12)"><rect width="6" height="6"/></g>
<g transform="translate(528,216) scale(4.12)"><rect width="6" height="6"/></g>
<g transform="translate(48,240) scale(4.12)"><rect width="6" height="6"/></g>
<g transform="translate(96,240) scale(4.12)"><rect width="6" height="6"/></g>
<g transform="translate(120,240) scale(4.12)"><rect width="6" height="6"/></g>
<g transform="translate(144,240) scale(4.12)"><rect width="6" height="6"/></g>
<g transform="translate(168,240) scale(4.12)"><rect width="6" height="6"/></g>
<g transform="translate(192,240) scale(4.12)"><rect width="6" height="6"/></g>
<g transform="translate(264,240) scale(4.12)"><rect width="6" height="6"/></g>
<g transform="translate(288,240) scale(4.12)"><rect width="6" height="6"/></g>
<g transform="translate(336,240) scale(4.12)"><rect width="6" height="6"/></g>
<g transform="translate(384,240) scale(4.12)"><rect width="6" height="6"/></g>
<g transform="translate(408,240) scale(4.12)"><rect width="6" height="6"/></g>
<g transform="translate(456,240) scale(4.12)"><rect width="6" height="6"/></g>
<g transform="translate(504,240) scale(4.12)"><rect width="6" height="6"/></g>
<g transform="translate(576,240) scale(4.12)"><rect width="6" height="6"/></g>
<g transform="translate(600,240) scale(4.12)"><rect width="6" height="6"/></g>
<g transform="translate(624,240) scale(4.12)"><rect width="6" height="6"/></g>
<g transform="translate(648,240) scale(4.12)"><rect width="6" height="6"/></g>
<g transform="translate(672,240) scale(4.12)"><rect width="6" height="6"/></g>
<g transform="translate(72,264) scale(4.12)"><rect width="6" height="6"/></g>
<g transform="translate(96,264) scale(4.12)"><rect width="6" height="6"/></g>
<g transform="translate(120,264) scale(4.12)"><rect width="6" height="6"/></g>
<g transform="translate(144,264) scale(4.12)"><rect width="6" height="6"/></g>
<g transform="translate(168,264) scale(4.12)"><rect width="6" height="6"/></g>
<g transform="translate(216,264) scale(4.12)"><rect width="6" height="6"/></g>
<g transform="translate(264,264) scale(4.12)"><rect width="6" height="6"/></g>
<g transform="translate(288,264) scale(4.12)"><rect width="6" height="6"/></g>
<g transform="translate(336,264) scale(4.12)"><rect width="6" height="6"/></g>
<g transform="translate(408,264) scale(4.12)"><rect width="6" height="6"/></g>
<g transform="translate(504,264) scale(4.12)"><rect width="6" height="6"/></g>
<g transform="translate(528,264) scale(4.12)"><rect width="6" height="6"/></g>
<g transform="translate(552,264) scale(4.12)"><rect width="6" height="6"/></g>
<g transform="translate(576,264) scale(4.12)"><rect width="6" height="6"/></g>
<g transform="translate(624,264) scale(4.12)"><rect width="6" height="6"/></g>
<g transform="translate(720,264) scale(4.12)"><rect width="6" height="6"/></g>
<g transform="translate(48,288) scale(4.12)"><rect width="6" height="6"/></g>
<g transform="translate(72,288) scale(4.12)"><rect width="6" height="6"/></g>
<g transform="translate(96,288) scale(4.12)"><rect width="6" height="6"/></g>
<g transform="translate(120,288) scale(4.12)"><rect width="6" height="6"/></g>
<g transform="translate(144,288) scale(4.12)"><rect width="6" height="6"/></g>
<g transform="translate(168,288) scale(4.12)"><rect width="6" height="6"/></g>
<g transform="translate(192,288) scale(4.12)"><rect width="6" height="6"/></g>
<g transform="translate(288,288) scale(4.12)"><rect width="6" height="6"/></g>
<g transform="translate(336,288) scale(4.12)"><rect width="6" height="6"/></g>
<g transform="translate(432,288) scale(4.12)"><rect width="6" height="6"/></g>
<g transform="translate(480,288) scale(4.12)"><rect width="6" height="6"/></g>
<g transform="translate(528,288) scale(4.12)"><rect width="6" height="6"/></g>
<g transform="translate(576,288) scale(4.12)"><rect width="6" height="6"/></g>
<g transform="translate(600,288) scale(4.12)"><rect width="6" height="6"/></g>
<g transform="translate(48,312) scale(4.12)"><rect width="6" height="6"/></g>
<g transform="translate(72,312) scale(4.12)"><rect width="6" height="6"/></g>
<g transform="translate(144,312) scale(4.12)"><rect width="6" height="6"/></g>
<g transform="translate(168,312) scale(4.12)"><rect width="6" height="6"/></g>
<g transform="translate(216,312) scale(4.12)"><rect width="6" height="6"/></g>
<g transform="translate(264,312) scale(4.12)"><rect width="6" height="6"/></g>
<g transform="translate(312,312) scale(4.12)"><rect width="6" height="6"/></g>
<g transform="translate(384,312) scale(4.12)"><rect width="6" height="6"/></g>
<g transform="translate(408,312) scale(4.12)"><rect width="6" height="6"/></g>
<g transform="translate(480,312) scale(4.12)"><rect width="6" height="6"/></g>
<g transform="translate(504,312) scale(4.12)"><rect width="6" height="6"/></g>
<g transform="translate(552,312) scale(4.12)"><rect width="6" height="6"/></g>
<g transform="translate(576,312) scale(4.12)"><rect width="6" height="6"/></g>
<g transform="translate(624,312) scale(4.12)"><rect width="6" height="6"/></g>
<g transform="translate(648,312) scale(4.12)"><rect width="6" height="6"/></g>
<g transform="translate(696,312) scale(4.12)"><rect width="6" height="6"/></g>
<g transform="translate(96,336) scale(4.12)"><rect width="6" height="6"/></g>
<g transform="translate(120,336) scale(4.12)"><rect width="6" height="6"/></g>
<g transform="translate(192,336) scale(4.12)"><rect width="6" height="6"/></g>
<g transform="translate(216,336) scale(4.12)"><rect width="6" height="6"/></g>
<g transform="translate(264,336) scale(4.12)"><rect width="6" height="6"/></g>
<g transform="translate(312,336) scale(4.12)"><rect width="6" height="6"/></g>
<g transform="translate(432,336) scale(4.12)"><rect width="6" height="6"/></g>
<g transform="translate(456,336) scale(4.12)"><rect width="6" height="6"/></g>
<g transform="translate(600,336) scale(4.12)"><rect width="6" height="6"/></g>
<g transform="translate(648,336) scale(4.12)"><rect width="6" height="6"/></g>
<g transform="translate(672,336) scale(4.12)"><rect width="6" height="6"/></g>
<g transform="translate(48,360) scale(4.12)"><rect width="6" height="6"/></g>
<g transform="translate(72,360) scale(4.12)"><rect width="6" height="6"/></g>
<g transform="translate(168,360) scale(4.12)"><rect width="6" height="6"/></g>
<g transform="translate(240,360) scale(4.12)"><rect width="6" height="6"/></g>
<g transform="translate(264,360) scale(4.12)"><rect width="6" height="6"/></g>
<g transform="translate(312,360) scale(4.12)"><rect width="6" height="6"/></g>
<g transform="translate(336,360) scale(4.12)"><rect width="6" height="6"/></g>
<g transform="translate(360,360) scale(4.12)"><rect width="6" height="6"/></g>
<g transform="translate(384,360) scale(4.12)"><rect width="6" height="6"/></g>
<g transform="translate(432,360) scale(4.12)"><rect width="6" height="6"/></g>
<g transform="translate(504,360) scale(4.12)"><rect width="6" height="6"/></g>
<g transform="translate(528,360) scale(4.12)"><rect width="6" height="6"/></g>
<g transform="translate(552,360) scale(4.12)"><rect width="6" height="6"/></g>
<g transform="translate(576,360) scale(4.12)"><rect width="6" height="6"/></g>
<g transform="translate(600,360) scale(4.12)"><rect width="6" height="6"/></g>
<g transform="translate(624,360) scale(4.12)"><rect width="6" height="6"/></g>
<g transform="translate(720,360) scale(4.12)"><rect width="6" height="6"/></g>
<g transform="translate(48,384) scale(4.12)"><rect width="6" height="6"/></g>
<g transform="translate(72,384) scale(4.12)"><rect width="6" height="6"/></g>
<g transform="translate(168,384) scale(4.12)"><rect width="6" height="6"/></g>
<g transform="translate(192,384) scale(4.12)"><rect width="6" height="6"/></g>
<g transform="translate(216,384) scale(4.12)"><rect width="6" height="6"/></g>
<g transform="translate(288,384) scale(4.12)"><rect width="6" height="6"/></g>
<g transform="translate(360,384) scale(4.12)"><rect width="6" height="6"/></g>
<g transform="translate(384,384) scale(4.12)"><rect width="6" height="6"/></g>
<g transform="translate(432,384) scale(4.12)"><rect width="6" height="6"/></g>
<g transform="translate(480,384) scale(4.12)"><rect width="6" height="6"/></g>
<g transform="translate(552,384) scale(4.12)"><rect width="6" height="6"/></g>
<g transform="translate(624,384) scale(4.12)"><rect width="6" height="6"/></g>
<g transform="translate(648,384) scale(4.12)"><rect width="6" height="6"/></g>
<g transform="translate(672,384) scale(4.12)"><rect width="6" height="6"/></g>
<g transform="translate(48,408) scale(4.12)"><rect width="6" height="6"/></g>
<g transform="translate(96,408) scale(4.12)"><rect width="6" height="6"/></g>
<g transform="translate(120,408) scale(4.12)"><rect width="6" height="6"/></g>
<g transform="translate(144,408) scale(4.12)"><rect width="6" height="6"/></g>
<g transform="translate(168,408) scale(4.12)"><rect width="6" height="6"/></g>
<g transform="translate(216,408) scale(4.12)"><rect width="6" height="6"/></g>
<g transform="translate(240,408) scale(4.12)"><rect width="6" height="6"/></g>
<g transform="translate(288,408) scale(4.12)"><rect width="6" height="6"/></g>
<g transform="translate(360,408) scale(4.12)"><rect width="6" height="6"/></g>
<g transform="translate(408,408) scale(4.12)"><rect width="6" height="6"/></g>
<g transform="translate(432,408) scale(4.12)"><rect width="6" height="6"/></g>
<g transform="translate(480,408) scale(4.12)"><rect width="6" height="6"/></g>
<g transform="translate(504,408) scale(4.12)"><rect width="6" height="6"/></g>
<g transform="translate(528,408) scale(4.12)"><rect width="6" height="6"/></g>
<g transform="translate(624,408) scale(4.12)"><rect width="6" height="6"/></g>
<g transform="translate(696,408) scale(4.12)"><rect width="6" height="6"/></g>
<g transform="translate(48,432) scale(4.12)"><rect width="6" height="6"/></g>
<g transform="translate(72,432) scale(4.12)"><rect width="6" height="6"/></g>
<g transform="translate(96,432) scale(4.12)"><rect width="6" height="6"/></g>
<g transform="translate(144,432) scale(4.12)"><rect width="6" height="6"/></g>
<g transform="translate(192,432) scale(4.12)"><rect width="6" height="6"/></g>
<g transform="translate(216,432) scale(4.12)"><rect width="6" height="6"/></g>
<g transform="translate(240,432) scale(4.12)"><rect width="6" height="6"/></g>
<g transform="translate(264,432) scale(4.12)"><rect width="6" height="6"/></g>
<g transform="translate(312,432) scale(4.12)"><rect width="6" height="6"/></g>
<g transform="translate(336,432) scale(4.12)"><rect width="6" height="6"/></g>
<g transform="translate(384,432) scale(4.12)"><rect width="6" height="6"/></g>
<g transform="translate(408,432) scale(4.12)"><rect width="6" height="6"/></g>
<g transform="translate(432,432) scale(4.12)"><rect width="6" height="6"/></g>
<g transform="translate(456,432) scale(4.12)"><rect width="6" height="6"/></g>
<g transform="translate(480,432) scale(4.12)"><rect width="6" height="6"/></g>
<g transform="translate(504,432) scale(4.12)"><rect width="6" height="6"/></g>
<g transform="translate(600,432) scale(4.12)"><rect width="6" height="6"/></g>
<g transform="translate(648,432) scale(4.12)"><rect width="6" height="6"/></g>
<g transform="translate(672,432) scale(4.12)"><rect width="6" height="6"/></g>
<g transform="translate(48,456) scale(4.12)"><rect width="6" height="6"/></g>
<g transform="translate(96,456) scale(4.12)"><rect width="6" height="6"/></g>
<g transform="translate(120,456) scale(4.12)"><rect width="6" height="6"/></g>
<g transform="translate(144,456) scale(4.12)"><rect width="6" height="6"/></g>
<g transform="translate(240,456) scale(4.12)"><rect width="6" height="6"/></g>
<g transform="translate(288,456) scale(4.12)"><rect width="6" height="6"/></g>
<g transform="translate(312,456) scale(4.12)"><rect width="6" height="6"/></g>
<g transform="translate(336,456) scale(4.12)"><rect width="6" height="6"/></g>
<g transform="translate(408,456) scale(4.12)"><rect width="6" height="6"/></g>
<g transform="translate(456,456) scale(4.12)"><rect width="6" height="6"/></g>
<g transform="translate(480,456) scale(4.12)"><rect width="6" height="6"/></g>
<g transform="translate(504,456) scale(4.12)"><rect width="6" height="6"/></g>
<g transform="translate(576,456) scale(4.12)"><rect width="6" height="6"/></g>
<g transform="translate(600,456) scale(4.12)"><rect width="6" height="6"/></g>
<g transform="translate(624,456) scale(4.12)"><rect width="6" height="6"/></g>
<g transform="translate(672,456) scale(4.12)"><rect width="6" height="6"/></g>
<g transform="translate(720,456) scale(4.12)"><rect width="6" height="6"/></g>
<g transform="translate(48,480) scale(4.12)"><rect width="6" height="6"/></g>
<g transform="translate(96,480) scale(4.12)"><rect width="6" height="6"/></g>
<g transform="translate(144,480) scale(4.12)"><rect width="6" height="6"/></g>
<g transform="translate(192,480) scale(4.12)"><rect width="6" height="6"/></g>
<g transform="translate(240,480) scale(4.12)"><rect width="6" height="6"/></g>
<g transform="translate(264,480) scale(4.12)"><rect width="6" height="6"/></g>
<g transform="translate(336,480) scale(4.12)"><rect width="6" height="6"/></g>
<g transform="translate(456,480) scale(4.12)"><rect width="6" height="6"/></g>
<g transform="translate(528,480) scale(4.12)"><rect width="6" height="6"/></g>
<g transform="translate(552,480) scale(4.12)"><rect width="6" height="6"/></g>
<g transform="translate(624,480) scale(4.12)"><rect width="6" height="6"/></g>
<g transform="translate(672,480) scale(4.12)"><rect width="6" height="6"/></g>
<g transform="translate(48,504) scale(4.12)"><rect width="6" height="6"/></g>
<g transform="translate(120,504) scale(4.12)"><rect width="6" height="6"/></g>
<g transform="translate(144,504) scale(4.12)"><rect width="6" height="6"/></g>
<g transform="translate(216,504) scale(4.12)"><rect width="6" height="6"/></g>
<g transform="translate(288,504) scale(4.12)"><rect width="6" height="6"/></g>
<g transform="translate(312,504) scale(4.12)"><rect width="6" height="6"/></g>
<g transform="translate(336,504) scale(4.12)"><rect width="6" height="6"/></g>
<g transform="translate(384,504) scale(4.12)"><rect width="6" height="6"/></g>
<g transform="translate(408,504) scale(4.12)"><rect width="6" height="6"/></g>
<g transform="translate(432,504) scale(4.12)"><rect width="6" height="6"/></g>
<g transform="translate(528,504) scale(4.12)"><rect width="6" height="6"/></g>
<g transform="translate(552,504) scale(4.12)"><rect width="6" height="6"/></g>
<g transform="translate(624,504) scale(4.12)"><rect width="6" height="6"/></g>
<g transform="translate(696,504) scale(4.12)"><rect width="6" height="6"/></g>
<g transform="translate(48,528) scale(4.12)"><rect width="6" height="6"/></g>
<g transform="translate(120,528) scale(4.12)"><rect width="6" height="6"/></g>
<g transform="translate(144,528) scale(4.12)"><rect width="6" height="6"/></g>
<g transform="translate(168,528) scale(4.12)"><rect width="6" height="6"/></g>
<g transform="translate(192,528) scale(4.12)"><rect width="6" height="6"/></g>
<g transform="translate(240,528) scale(4.12)"><rect width="6" height="6"/></g>
<g transform="translate(264,528) scale(4.12)"><rect width="6" height="6"/></g>
<g transform="translate(336,528) scale(4.12)"><rect width="6" height="6"/></g>
<g transform="translate(408,528) scale(4.12)"><rect width="6" height="6"/></g>
<g transform="translate(456,528) scale(4.12)"><rect width="6" height="6"/></g>
<g transform="translate(528,528) scale(4.12)"><rect width="6" height="6"/></g>
<g transform="translate(552,528) scale(4.12)"><rect width="6" height="6"/></g>
<g transform="translate(576,528) scale(4.12)"><rect width="6" height="6"/></g>
<g transform="translate(600,528) scale(4.12)"><rect width="6" height="6"/></g>
<g transform="translate(624,528) scale(4.12)"><rect width="6" height="6"/></g>
<g transform="translate(672,528) scale(4.12)"><rect width="6" height="6"/></g>
<g transform="translate(696,528) scale(4.12)"><rect width="6" height="6"/></g>
<g transform="translate(720,528) scale(4.12)"><rect width="6" height="6"/></g>
<g transform="translate(240,552) scale(4.12)"><rect width="6" height="6"/></g>
<g transform="translate(264,552) scale(4.12)"><rect width="6" height="6"/></g>
<g transform="translate(288,552) scale(4.12)"><rect width="6" height="6"/></g>
<g transform="translate(360,552) scale(4.12)"><rect width="6" height="6"/></g>
<g transform="translate(384,552) scale(4.12)"><rect width="6" height="6"/></g>
<g transform="translate(408,552) scale(4.12)"><rect width="6" height="6"/></g>
<g transform="translate(456,552) scale(4.12)"><rect width="6" height="6"/></g>
<g transform="translate(480,552) scale(4.12)"><rect width="6" height="6"/></g>
<g transform="translate(528,552) scale(4.12)"><rect width="6" height="6"/></g>
<g transform="translate(624,552) scale(4.12)"><rect width="6" height="6"/></g>
<g transform="translate(648,552) scale(4.12)"><rect width="6" height="6"/></g>
<g transform="translate(672,552) scale(4.12)"><rect width="6" height="6"/></g>
<g transform="translate(696,552) scale(4.12)"><rect width="6" height="6"/></g>
<g transform="translate(720,552) scale(4.12)"><rect width="6" height="6"/></g>
<g transform="translate(288,576) scale(4.12)"><rect width="6" height="6"/></g>
<g transform="translate(336,576) scale(4.12)"><rect width="6" height="6"/></g>
<g transform="translate(360,576) scale(4.12)"><rect width="6" height="6"/></g>
<g transform="translate(384,576) scale(4.12)"><rect width="6" height="6"/></g>
<g transform="translate(480,576) scale(4.12)"><rect width="6" height="6"/></g>
<g transform="translate(504,576) scale(4.12)"><rect width="6" height="6"/></g>
<g transform="translate(528,576) scale(4.12)"><rect width="6" height="6"/></g>
<g transform="translate(576,576) scale(4.12)"><rect width="6" height="6"/></g>
<g transform="translate(624,576) scale(4.12)"><rect width="6" height="6"/></g>
<g transform="translate(648,576) scale(4.12)"><rect width="6" height="6"/></g>
<g transform="translate(672,576) scale(4.12)"><rect width="6" height="6"/></g>
<g transform="translate(240,600) scale(4.12)"><rect width="6" height="6"/></g>
<g transform="translate(264,600) scale(4.12)"><rect width="6" height="6"/></g>
<g transform="translate(288,600) scale(4.12)"><rect width="6" height="6"/></g>
<g transform="translate(312,600) scale(4.12)"><rect width="6" height="6"/></g>
<g transform="translate(360,600) scale(4.12)"><rect width="6" height="6"/></g>
<g transform="translate(504,600) scale(4.12)"><rect width="6" height="6"/></g>
<g transform="translate(528,600) scale(4.12)"><rect width="6" height="6"/></g>
<g transform="translate(624,600) scale(4.12)"><rect width="6" height="6"/></g>
<g transform="translate(240,624) scale(4.12)"><rect width="6" height="6"/></g>
<g transform="translate(264,624) scale(4.12)"><rect width="6" height="6"/></g>
<g transform="translate(336,624) scale(4.12)"><rect width="6" height="6"/></g>
<g transform="translate(384,624) scale(4.12)"><rect width="6" height="6"/></g>
<g transform="translate(456,624) scale(4.12)"><rect width="6" height="6"/></g>
<g transform="translate(528,624) scale(4.12)"><rect width="6" height="6"/></g>
<g transform="translate(552,624) scale(4.12)"><rect width="6" height="6"/></g>
<g transform="translate(576,624) scale(4.12)"><rect width="6" height="6"/></g>
<g transform="translate(600,624) scale(4.12)"><rect width="6" height="6"/></g>
<g transform="translate(624,624) scale(4.12)"><rect width="6" height="6"/></g>
<g transform="translate(672,624) scale(4.12)"><rect width="6" height="6"/></g>
<g transform="translate(720,624) scale(4.12)"><rect width="6" height="6"/></g>
<g transform="translate(240,648) scale(4.12)"><rect width="6" height="6"/></g>
<g transform="translate(264,648) scale(4.12)"><rect width="6" height="6"/></g>
<g transform="translate(288,648) scale(4.12)"><rect width="6" height="6"/></g>
<g transform="translate(312,648) scale(4.12)"><rect width="6" height="6"/></g>
<g transform="translate(336,648) scale(4.12)"><rect width="6" height="6"/></g>
<g transform="translate(480,648) scale(4.12)"><rect width="6" height="6"/></g>
<g transform="translate(600,648) scale(4.12)"><rect width="6" height="6"/></g>
<g transform="translate(648,648) scale(4.12)"><rect width="6" height="6"/></g>
<g transform="translate(672,648) scale(4.12)"><rect width="6" height="6"/></g>
<g transform="translate(240,672) scale(4.12)"><rect width="6" height="6"/></g>
<g transform="translate(288,672) scale(4.12)"><rect width="6" height="6"/></g>
<g transform="translate(312,672) scale(4.12)"><rect width="6" height="6"/></g>
<g transform="translate(408,672) scale(4.12)"><rect width="6" height="6"/></g>
<g transform="translate(504,672) scale(4.12)"><rect width="6" height="6"/></g>
<g transform="translate(528,672) scale(4.12)"><rect width="6" height="6"/></g>
<g transform="translate(576,672) scale(4.12)"><rect width="6" height="6"/></g>
<g transform="translate(600,672) scale(4.12)"><rect width="6" height="6"/></g>
<g transform="translate(624,672) scale(4.12)"><rect width="6" height="6"/></g>
<g transform="translate(648,672) scale(4.12)"><rect width="6" height="6"/></g>
<g transform="translate(672,672) scale(4.12)"><rect width="6" height="6"/></g>
<g transform="translate(696,672) scale(4.12)"><rect width="6" height="6"/></g>
<g transform="translate(312,696) scale(4.12)"><rect width="6" height="6"/></g>
<g transform="translate(336,696) scale(4.12)"><rect width="6" height="6"/></g>
<g transform="translate(384,696) scale(4.12)"><rect width="6" height="6"/></g>
<g transform="translate(408,696) scale(4.12)"><rect width="6" height="6"/></g>
<g transform="translate(480,696) scale(4.12)"><rect width="6" height="6"/></g>
<g transform="translate(528,696) scale(4.12)"><rect width="6" height="6"/></g>
<g transform="translate(552,696) scale(4.12)"><rect width="6" height="6"/></g>
<g transform="translate(600,696) scale(4.12)"><rect width="6" height="6"/></g>
<g transform="translate(624,696) scale(4.12)"><rect width="6" height="6"/></g>
<g transform="translate(648,696) scale(4.12)"><rect width="6" height="6"/></g>
<g transform="translate(696,696) scale(4.12)"><rect width="6" height="6"/></g>
<g transform="translate(240,720) scale(4.12)"><rect width="6" height="6"/></g>
<g transform="translate(288,720) scale(4.12)"><rect width="6" height="6"/></g>
<g transform="translate(336,720) scale(4.12)"><rect width="6" height="6"/></g>
<g transform="translate(360,720) scale(4.12)"><rect width="6" height="6"/></g>
<g transform="translate(384,720) scale(4.12)"><rect width="6" height="6"/></g>
<g transform="translate(408,720) scale(4.12)"><rect width="6" height="6"/></g>
<g transform="translate(432,720) scale(4.12)"><rect width="6" height="6"/></g>
<g transform="translate(480,720) scale(4.12)"><rect width="6" height="6"/></g>
<g transform="translate(504,720) scale(4.12)"><rect width="6" height="6"/></g>
<g transform="translate(552,720) scale(4.12)"><rect width="6" height="6"/></g>
<g transform="translate(624,720) scale(4.12)"><rect width="6" height="6"/></g>
<g transform="translate(672,720) scale(4.12)"><rect width="6" height="6"/></g>
<g transform="translate(48,48)"><g transform="scale(12)"><path d="M0,0v14h14V0H0z M12,12H2V2h10V12z"/></g></g>
<g transform="translate(576,48)"><g transform="scale(12)"><path d="M0,0v14h14V0H0z M12,12H2V2h10V12z"/></g></g>
<g transform="translate(48,576)"><g transform="scale(12)"><path d="M0,0v14h14V0H0z M12,12H2V2h10V12z"/></g></g>
<g transform="translate(96,96)"><g transform="scale(12)"><rect width="6" height="6"/></g></g>
<g transform="translate(624,96)"><g transform="scale(12)"><rect width="6" height="6"/></g></g>
<g transform="translate(96,624)"><g transform="scale(12)"><rect width="6" height="6"/></g></g>
</g></svg>
